<svg width="82" height="74" viewBox="0 0 82 74" fill="none" xmlns="http://www.w3.org/2000/svg">
<g clip-path="url(#clip0)">
<path d="M55.4141 11.2609C55.4141 10.3729 54.6966 9.65216 53.8125 9.65216C52.9284 9.65216 52.2109 10.3729 52.2109 11.2609C52.2109 12.1489 52.9284 12.8696 53.8125 12.8696C54.6966 12.8696 55.4141 12.1489 55.4141 11.2609Z" fill="#FF699F"/>
<path d="M60.6608 0.503522C60.3581 0.181783 59.9385 0 59.4981 0H22.502C22.0615 0 21.6419 0.181783 21.3392 0.503522C21.0365 0.825261 20.8796 1.25639 20.9036 1.69717C21.8838 19.6309 13.9816 30.0199 12.1318 36.5335C8.78938 48.2786 14.2427 63.4486 21.8838 73.3758C22.1864 73.77 22.6557 74 23.1506 74H58.851C59.3475 74 59.8152 73.77 60.1179 73.3758C67.3922 63.9312 73.0873 48.1386 69.857 36.548C68.0392 29.9973 60.1131 19.7146 61.0964 1.69717C61.122 1.25639 60.9635 0.823652 60.6608 0.503522ZM63.7822 30.3207C63.976 30.7293 64.1682 31.1299 64.3572 31.5208C65.1099 33.0812 65.781 34.4792 66.3159 35.9801C57.1614 39.4404 48.5354 46.9192 41 52.68C33.4326 46.8951 24.8322 39.4388 15.6761 35.9785C16.2158 34.4792 16.8885 33.0828 17.638 31.5256C17.827 31.1315 18.0208 30.7309 18.2162 30.3207C25.2198 33.641 33.0595 35.3913 41 35.3913C48.9406 35.3913 56.7802 33.641 63.7822 30.3207ZM14.8113 39.0881C23.4837 42.4326 31.7013 49.6395 39.3984 55.4952V70.7826H23.945C15.6953 59.7051 13.2337 47.1364 14.8113 39.0881ZM58.055 70.7826H42.6016V55.4952C50.3531 49.5961 58.5195 42.439 67.1631 39.0977C69.0674 49.2647 64.1025 62.5734 58.055 70.7826ZM62.0686 26.4067C62.1951 26.7301 62.3296 27.0567 62.4674 27.3864C55.8769 30.5218 48.4889 32.1739 41 32.1739C33.5111 32.1739 26.1231 30.5218 19.5327 27.3864C19.6688 27.0599 19.8017 26.7349 19.9298 26.41C22.9328 18.7703 24.3566 10.9761 24.1676 3.21739H57.8324C57.6434 10.9729 59.0656 18.7654 62.0686 26.4067Z" fill="#FF699F"/>
<path d="M55.9794 17.3305C55.7936 16.4618 54.9416 15.9084 54.0768 16.0966C53.2119 16.2832 52.6626 17.1391 52.8484 18.0078C53.332 20.2615 53.9486 22.5459 54.6838 24.8013C54.9592 25.6442 55.8625 26.1059 56.7049 25.8292C57.5457 25.5525 58.0038 24.6436 57.7283 23.7991C57.0268 21.6498 56.4391 19.4733 55.9794 17.3305Z" fill="#FF699F"/>
<path d="M80.3984 12.8696H70.4912L74.1636 9.18085C74.7882 8.55346 74.7882 7.53354 74.1636 6.90615C73.5389 6.27876 72.5236 6.27876 71.8989 6.90615L65.4927 13.3409C64.8681 13.9683 64.8681 14.9882 65.4927 15.6156L71.8989 22.0504C72.5236 22.6778 73.5389 22.6778 74.1636 22.0504C74.7882 21.423 74.7882 20.4031 74.1636 19.7757L70.4912 16.087H80.3984C81.2825 16.087 82 15.3663 82 14.4783C82 13.5903 81.2825 12.8696 80.3984 12.8696Z" fill="#FF699F"/>
<path d="M1.60156 16.087H11.5088L7.83645 19.7757C7.21184 20.4031 7.21184 21.423 7.83645 22.0504C8.46105 22.6778 9.47645 22.6778 10.1011 22.0504L16.5073 15.6156C17.1319 14.9882 17.1319 13.9683 16.5073 13.3409L10.1011 6.90615C9.47645 6.27876 8.46105 6.27876 7.83645 6.90615C7.21184 7.53354 7.21184 8.55346 7.83645 9.18085L11.5088 12.8696H1.60156C0.7175 12.8696 0 13.5903 0 14.4783C0 15.3663 0.7175 16.087 1.60156 16.087Z" fill="#FF699F"/>
</g>
<defs>
<clipPath id="clip0">
<rect width="82" height="74" fill="white"/>
</clipPath>
</defs>
</svg>
