<svg width="70" height="63" viewBox="0 0 70 63" fill="none" xmlns="http://www.w3.org/2000/svg">
<g clip-path="url(#clip0)">
<path d="M35.4499 36.8999C39.3938 36.8999 42.5909 33.6169 42.5909 29.567C42.5909 25.5172 39.3938 22.2342 35.4499 22.2342C31.5059 22.2342 28.3088 25.5172 28.3088 29.567C28.3088 33.6169 31.5059 36.8999 35.4499 36.8999ZM35.4499 25.7277C37.5162 25.7277 39.1904 27.4469 39.1904 29.5687C39.1904 31.6905 37.5162 33.4097 35.4499 33.4097C33.3835 33.4097 31.7093 31.6905 31.7093 29.5687C31.7093 27.4469 33.3835 25.7277 35.4499 25.7277Z" fill="#FF699F"/>
<path d="M63.9259 5.47682L17.513 0.0653175C15.7119 -0.196988 13.8864 0.342659 12.4969 1.54893C11.1074 2.65495 10.2174 4.29394 10.0319 6.08831L9.18259 13.2457H6.54679C2.80623 13.2457 0.00121845 16.6507 0.00121845 20.49V56.1903C-0.0931497 59.8525 2.72163 62.8999 6.28809 62.9968C6.37432 62.9985 6.46056 63.0002 6.54516 62.9985H53.2118C56.9524 62.9985 60.3529 60.0313 60.3529 56.1903V54.7935C61.513 54.563 62.6129 54.0885 63.5826 53.3968C64.9591 52.2056 65.8425 50.5198 66.0475 48.6836L69.9573 13.2457C70.3592 9.39636 67.6681 5.93293 63.9259 5.47682ZM6.54679 16.7376H53.2135C55.2115 16.8228 56.8255 18.4417 56.954 20.4917V35.1557L38.4237 46.241C36.8325 47.2084 34.8182 47.033 33.4092 45.805L24.0586 37.3377C21.3789 34.9736 17.461 34.8283 14.6234 36.9885L3.40335 45.3689V20.4917C3.40173 18.5704 4.67732 16.7376 6.54679 16.7376ZM53.2151 59.5083H6.54679C4.85792 59.5584 3.44728 58.1935 3.39847 56.4592C3.39522 56.369 3.39685 56.2805 3.40173 56.1919V49.7329L16.5775 39.782C18.1606 38.5339 20.3896 38.6442 21.8474 40.0443L31.1134 48.4247C32.5208 49.6376 34.291 50.3159 36.128 50.3443C37.5646 50.3627 38.9769 49.9701 40.2086 49.2099L56.954 39.259V56.1936C56.954 58.1116 55.0846 59.5083 53.2151 59.5083ZM66.5601 12.8097L62.5641 48.2476C62.5706 49.1665 62.1622 50.0369 61.4593 50.605C61.1192 50.9542 60.3545 51.1279 60.3545 51.3034V20.49C60.2211 16.5137 57.0874 13.3359 53.2135 13.2457H12.5831L13.3478 6.43749C13.5138 5.55535 13.9628 4.75674 14.6234 4.16864C15.3686 3.63902 16.27 3.39342 17.173 3.47027L63.4996 8.96865C65.3691 9.15076 66.7407 10.8549 66.5633 12.7746C66.5633 12.7863 66.5617 12.798 66.5601 12.8097Z" fill="#FF699F"/>
</g>
<defs>
<clipPath id="clip0">
<rect width="70" height="63" fill="white"/>
</clipPath>
</defs>
</svg>
