<svg width="66" height="65" viewBox="0 0 66 65" fill="none" xmlns="http://www.w3.org/2000/svg">
<g clip-path="url(#clip0)">
<path d="M48.3514 55.9275C47.6592 55.9275 46.9644 55.7612 46.3225 55.4236L33.4061 48.6347C33.1521 48.5019 32.8492 48.5019 32.5952 48.6347L19.6788 55.4236C18.2016 56.1994 16.4446 56.0731 15.0949 55.0924C13.7453 54.1117 13.0814 52.4815 13.3637 50.8371L15.8297 36.4576C15.8787 36.1754 15.7846 35.8867 15.5796 35.687L5.13048 25.5036C3.93552 24.3386 3.51271 22.6298 4.02962 21.0434C4.54653 19.457 5.89103 18.3216 7.5436 18.0819L21.985 15.9839C22.2686 15.9426 22.5135 15.7648 22.6411 15.5083L29.0993 2.42535C29.8354 0.929161 31.332 0 33 0C34.6693 0 36.1647 0.929161 36.9033 2.42535L43.3615 15.5071C43.4878 15.7635 43.7327 15.9426 44.0163 15.9826L58.4577 18.0806C60.109 18.3203 61.4561 19.4557 61.9717 21.0421C62.4873 22.6285 62.0658 24.3386 60.8708 25.5023L50.4217 35.6857C50.2167 35.8854 50.1226 36.1741 50.1716 36.4563L52.6389 50.8358C52.9212 52.4802 52.2573 54.1104 50.9077 55.0911C50.1432 55.6465 49.2499 55.9275 48.3514 55.9275ZM33 45.0533C33.6961 45.0533 34.3909 45.2196 35.0251 45.5534L47.9415 52.3423C48.3734 52.5691 48.7266 52.3719 48.8581 52.2766C48.9895 52.1812 49.2873 51.9067 49.2048 51.426L46.7375 37.0466C46.4952 35.6354 46.9631 34.1947 47.9892 33.1946L58.4384 23.0112C58.7877 22.671 58.7091 22.2741 58.6588 22.1194C58.6085 21.9648 58.4397 21.5975 57.9563 21.5266L43.5149 19.4286C42.0969 19.2224 40.8723 18.3332 40.2381 17.0484L33.7799 3.96536C33.5633 3.5272 33.1624 3.48081 33 3.48081C32.8376 3.48081 32.4354 3.52849 32.2188 3.96536L25.7606 17.0484C25.1264 18.3332 23.9018 19.2224 22.4838 19.4286L8.04376 21.5266C7.56036 21.5962 7.39149 21.9648 7.34122 22.1194C7.29095 22.2741 7.21231 22.671 7.56165 23.0112L18.0108 33.1946C19.0369 34.1947 19.5048 35.6341 19.2625 37.0466L16.7952 51.426C16.7127 51.9067 17.0105 52.1812 17.142 52.2766C17.2734 52.3719 17.6266 52.5704 18.0585 52.3423L30.9749 45.5534C31.6091 45.2209 32.3052 45.0533 33 45.0533Z" fill="#FF699F"/>
<path d="M50.4668 8.11631C50.1123 8.11631 49.754 8.00806 49.4446 7.78382C48.6673 7.21937 48.4946 6.1304 49.0592 5.35202L50.9077 2.8094C51.4723 2.0323 52.5616 1.85962 53.3401 2.42407C54.1174 2.98853 54.2902 4.07749 53.7256 4.85587L51.8771 7.3985C51.5355 7.86759 51.0044 8.11631 50.4668 8.11631Z" fill="#FF699F"/>
<path d="M15.5267 8.10599C14.9879 8.10599 14.4568 7.85727 14.1165 7.38818L12.268 4.84555C11.7034 4.06846 11.8748 2.9795 12.6534 2.41376C13.432 1.8493 14.52 2.02199 15.0859 2.79908L16.9344 5.34171C17.499 6.1188 17.3276 7.20776 16.549 7.77351C16.2396 7.99774 15.8812 8.10599 15.5267 8.10599Z" fill="#FF699F"/>
<path d="M1.74154 42.3006C1.00806 42.3006 0.32486 41.8328 0.086383 41.0969C-0.21139 40.1832 0.290055 39.2013 1.204 38.9036L4.19463 37.9319C5.10857 37.6342 6.09084 38.1355 6.38861 39.0492C6.68638 39.9629 6.18494 40.9449 5.27099 41.2426L2.28037 42.2143C2.10119 42.2735 1.91943 42.3006 1.74154 42.3006Z" fill="#FF699F"/>
<path d="M33.0013 65C32.0396 65 31.2598 64.2203 31.2598 63.259V60.1158C31.2598 59.1544 32.0396 58.3748 33.0013 58.3748C33.9629 58.3748 34.7428 59.1544 34.7428 60.1158V63.259C34.7415 64.2203 33.9616 65 33.0013 65Z" fill="#FF699F"/>
<path d="M64.2585 42.3033C64.0806 42.3033 63.8988 42.2762 63.7197 42.2182L60.729 41.2465C59.8151 40.9488 59.3136 39.9681 59.6114 39.0532C59.9092 38.1395 60.8914 37.6382 61.8054 37.9358L64.796 38.9075C65.71 39.2052 66.2114 40.1859 65.9136 41.1009C65.6752 41.8355 64.9932 42.3033 64.2585 42.3033Z" fill="#FF699F"/>
</g>
<defs>
<clipPath id="clip0">
<rect width="66" height="65" fill="white"/>
</clipPath>
</defs>
</svg>
